<svg width="422" height="170" viewBox="0 0 422 170" fill="none" xmlns="http://www.w3.org/2000/svg">
<g clip-path="url(#clip0)">
<path d="M87.7625 218.017C89.3907 209.357 92.8249 201.136 97.8412 193.892C99.2239 192.2 101.183 191.079 103.341 190.744C105.5 190.408 107.706 190.882 109.537 192.075C110.409 192.647 111.154 193.392 111.728 194.263C112.301 195.135 112.69 196.114 112.87 197.142C113.051 198.169 113.019 199.222 112.777 200.237C112.536 201.251 112.089 202.206 111.464 203.041C107.278 209.023 101.806 225.195 104.376 239.462C106.945 253.729 111.243 265.227 134.922 269.481C149.941 272.184 151.425 283.704 152.488 292.122C153.684 301.383 155.168 312.903 169.478 325.508C175.104 330.493 182.325 334.193 189.968 338.114C193.755 340.063 197.72 342.102 201.641 344.406C207.511 331.889 212.384 310.466 211.986 297.661C211.456 281.78 205.903 266.476 196.126 253.951L193.91 251.204L194.597 247.859C195.781 241.953 196.309 235.935 196.17 229.914C192.732 231.004 189.143 231.542 185.537 231.509C169.456 231.354 157.095 225.151 148.722 215.159C134.258 197.901 137.647 178.716 138.267 168.636C138.887 158.556 139.574 150.603 140.792 139.26C142.675 121.67 145.001 99.8037 143.229 92.0276C137.802 68.0792 125.508 68.478 120.834 68.6331C119.774 68.7121 118.708 68.5757 117.701 68.2322C116.695 67.8887 115.768 67.3452 114.977 66.6343C114.186 65.9233 113.547 65.0598 113.099 64.0955C112.65 63.1312 112.401 62.0861 112.367 61.0231C112.332 59.96 112.513 58.901 112.899 57.9097C113.284 56.9184 113.866 56.0153 114.609 55.2548C115.353 54.4942 116.242 53.8919 117.225 53.4841C118.207 53.0763 119.261 52.8713 120.325 52.8816C131.887 52.505 152.377 56.6699 159.643 88.6824C161.858 98.8511 159.643 120.163 157.428 140.766C156.231 152.065 155.212 160.262 154.991 169.389C154.769 178.517 153.308 195.332 161.924 205.39C167.329 211.726 175.326 215.137 186.512 215.735C190.566 215.979 199.493 211.969 204.233 203.839C207.079 197.54 208.45 190.676 208.242 183.767C207.884 173.503 204.102 163.653 197.499 155.787L193.401 150.824L197.654 145.95C205.452 137.167 209.618 125.746 209.305 114.004C208.987 104.263 205.564 94.8789 199.537 87.2202L195.771 82.3907L199.736 77.6719C207.183 68.9207 211.129 57.7227 210.812 46.2354C209.926 18.3214 190.654 -0.598051 163.94 0.2438C145.488 0.819803 131.688 8.48508 124.068 26.319C105.395 21.3565 83.5538 37.5954 78.6806 53.7013C73.6301 70.4054 76.7091 90.4104 97.8412 115.732C100.856 119.356 104.184 122.707 107.787 125.746C108.596 126.404 109.26 127.223 109.736 128.152C110.212 129.08 110.49 130.097 110.553 131.138C110.615 132.18 110.461 133.223 110.099 134.201C109.737 135.18 109.176 136.073 108.452 136.823C106.878 138.465 104.721 139.42 102.449 139.481C100.332 139.553 98.2613 138.852 96.623 137.51C92.281 133.854 88.2708 129.821 84.6392 125.458C72.4425 110.476 64.6778 92.3819 62.2223 73.219C30.3026 95.0406 26.2047 135.25 40.7358 157.271C22.1953 185.407 51.169 219.745 87.7625 218.017Z" fill="url(#paint0_linear)"/>
<path d="M222.22 109.551C222.293 111.513 222.5 113.467 222.84 115.4C228.245 108.153 234.45 101.539 241.336 95.6829L246.852 91.2522C264.573 77.2508 273.433 70.228 271.838 46.6784C271.848 44.6154 272.642 42.6334 274.059 41.1339C275.476 39.6345 277.409 38.7297 279.468 38.603C281.527 38.4762 283.557 39.137 285.147 40.4513C286.737 41.7656 287.768 43.6353 288.031 45.6814C290.069 76.8742 276.313 87.774 257.307 102.883L251.924 107.225C243.229 114.659 235.82 123.476 229.995 133.322V133.5L228.311 136.934C225.169 143.255 223.599 150.241 223.734 157.299C223.869 164.358 225.705 171.279 229.087 177.475L230.704 180.51L229.375 183.678C226.209 191.121 224.548 199.116 224.487 207.204C224.427 215.291 225.967 223.311 229.02 230.8C235.287 222.935 243.155 216.493 252.102 211.903C265.392 204.88 280.898 201.601 292.394 203.041C300.435 193.926 310.253 186.549 321.246 181.364C332.239 176.18 344.175 173.296 356.322 172.889H356.943C371.297 172.446 399.495 176.523 411.988 193.36C417.437 162.92 406.561 137.975 374.863 131.329C381.021 106.273 365.183 82.9444 350.497 74.9468C345.806 89.0447 336.605 101.206 324.314 109.551C328.102 114.691 337.162 128.471 337.361 143.181C337.321 145.242 336.475 147.205 335.005 148.65C333.536 150.095 331.558 150.907 329.497 150.913H329.342C327.262 151.003 325.229 150.266 323.69 148.863C322.15 147.461 321.228 145.505 321.124 143.425C321.014 133.057 313.97 122.378 311.112 118.457C297.977 127.119 285.816 136.446 278.063 159.952C277.505 161.505 276.488 162.852 275.147 163.814C273.806 164.775 272.204 165.306 270.554 165.335C269.663 165.365 268.773 165.253 267.918 165.003C266.928 164.753 266 164.305 265.189 163.686C264.378 163.066 263.701 162.289 263.2 161.4C262.699 160.511 262.383 159.53 262.273 158.515C262.162 157.501 262.259 156.475 262.557 155.499C272.614 125.037 289.869 113.783 305.109 103.836C318.045 95.3949 329.276 88.0177 335.5 68.9874L336.741 62.6514C337.495 58.9048 337.814 55.0839 337.693 51.2642C336.785 21.9546 310.625 -1.08557 279.414 -0.1108C248.203 0.863974 223.549 25.5435 224.479 54.8532C224.719 62.2973 226.619 69.5938 230.039 76.2096L231.944 79.9536L229.618 83.4983C224.522 91.2105 221.938 100.311 222.22 109.551Z" fill="url(#paint1_linear)"/>
</g>
<defs>
<linearGradient id="paint0_linear" x1="122.361" y1="0.216797" x2="122.361" y2="344.406" gradientUnits="userSpaceOnUse">
<stop stop-color="#FAFAFB"/>
<stop offset="1" stop-color="#F2F5FC"/>
</linearGradient>
<linearGradient id="paint1_linear" x1="317.766" y1="-0.140625" x2="317.766" y2="230.8" gradientUnits="userSpaceOnUse">
<stop stop-color="#FAFAFB"/>
<stop offset="1" stop-color="#F2F5FC"/>
</linearGradient>
<clipPath id="clip0">
<rect width="422" height="170" fill="white"/>
</clipPath>
</defs>
</svg>
